<?xml version="1.0" encoding="utf-8"?>
<!-- Generator: Adobe Illustrator 22.1.0, SVG Export Plug-In . SVG Version: 6.00 Build 0)  -->
<svg version="1.1" id="Layer_1" xmlns="http://www.w3.org/2000/svg" xmlns:xlink="http://www.w3.org/1999/xlink" x="0px" y="0px"
	 viewBox="0 0 256 256" style="enable-background:new 0 0 256 256;" xml:space="preserve">
<style type="text/css">
	.st0{fill:#F9A7A7;}
	.st1{fill:#F9CFCF;}
	.st2{fill:#3762CC;}
	.st3{fill:#E0EBFC;}
	.st4{fill:#A4C9FF;}
	.st5{fill:#4671C6;}
	.st6{fill:#B9BEFC;}
	.st7{fill:#FFEA92;}
	.st8{fill:#6BDDDD;}
	.st9{fill:#EAA97D;}
	.st10{fill:#FFEA94;}
</style>
<g>
	<g>
		<path class="st4" d="M135.879,24.471h-15.438c-45.969,0-83.368,40.44-83.368,90.147v28.911h13.895v-28.911
			c0-41.712,31.166-75.648,69.473-75.648h15.438c38.308,0,69.474,33.935,69.474,75.648v28.911h13.895v-28.911
			C219.247,64.911,181.848,24.471,135.879,24.471z"/>
	</g>
	<g>
		<path class="st2" d="M219.247,145.529h-13.895c-1.104,0-2-0.896-2-2v-28.911c0-40.609-30.269-73.648-67.474-73.648h-15.438
			c-37.205,0-67.474,33.039-67.474,73.648v28.911c0,1.104-0.896,2-2,2H37.073c-1.104,0-2-0.896-2-2v-28.911
			c0-50.81,38.296-92.147,85.368-92.147h15.438c47.072,0,85.368,41.337,85.368,92.147v28.911
			C221.247,144.633,220.352,145.529,219.247,145.529z M207.353,141.529h9.895v-26.911c0-48.604-36.502-88.147-81.368-88.147h-15.438
			c-44.867,0-81.368,39.542-81.368,88.147v26.911h9.895v-26.911c0-42.815,32.063-77.648,71.474-77.648h15.438
			c39.411,0,71.474,34.833,71.474,77.648V141.529z"/>
	</g>
	<g>
		<path class="st8" d="M54.943,222.768H28.352c-3.672,0-6.648-2.976-6.648-6.648v-53.183c0-3.672,2.976-6.648,6.648-6.648h26.592
			V222.768z"/>
	</g>
	<g>
		<path class="st7" d="M21.704,213.627L21.704,213.627c-6.425,0-11.634-5.209-11.634-11.634v-24.93
			c0-6.425,5.209-11.634,11.634-11.634h0V213.627z"/>
	</g>
	<g>
		<path class="st3" d="M65.563,222.768h-10.62v-66.479h10.62c3.314,0,6,2.686,6,6v54.479
			C71.563,220.082,68.876,222.768,65.563,222.768z"/>
	</g>
	<g>
		<path class="st8" d="M201.057,222.846h26.592c3.672,0,6.648-2.976,6.648-6.648v-53.183c0-3.672-2.976-6.648-6.648-6.648h-26.592
			V222.846z"/>
	</g>
	<g>
		<path class="st7" d="M234.296,213.705L234.296,213.705c6.425,0,11.634-5.209,11.634-11.634v-24.93
			c0-6.425-5.209-11.634-11.634-11.634h0V213.705z"/>
	</g>
	<g>
		<path class="st3" d="M189.437,222.846h11.62v-66.479h-11.62c-2.761,0-5,2.239-5,5v56.479
			C184.437,220.607,186.676,222.846,189.437,222.846z"/>
	</g>
	<g>
		<circle class="st0" cx="128.11" cy="189.529" r="46"/>
	</g>
	<g>
		<path class="st3" d="M113.183,169.797v39.763c0,1.587,1.693,2.601,3.092,1.851l37.112-19.881c1.478-0.792,1.478-2.911,0-3.702
			l-37.112-19.881C114.875,167.197,113.183,168.21,113.183,169.797z"/>
	</g>
	<g>
		<path class="st7" d="M165.871,121.209c-0.059,0-0.116-0.001-0.175-0.003c-2.158-0.074-4.002-1.499-4.697-3.631l-7.275-22.308
			l-4.966,13.087c-0.763,2.008-2.593,3.337-4.663,3.386c-1.338,0.024-2.625-0.486-3.582-1.399l-0.816,3.275
			c-0.614,2.461-2.693,4.058-5.101,4.01c-2.409-0.062-4.429-1.826-4.91-4.289l-5.673-28.993l-8.648,32.527
			c-0.593,2.231-2.409,3.769-4.625,3.917c-2.191,0.149-4.173-1.117-5.045-3.22l-7.711-18.597l-8.451,15.178
			c-0.916,1.645-2.619,2.667-4.444,2.667H64.11c-1.657,0-3-1.343-3-3s1.343-3,3-3h20.412l9.137-16.411
			c0.975-1.751,2.777-2.769,4.728-2.658c1.957,0.113,3.656,1.348,4.433,3.223l7.409,17.867l8.96-33.702
			c0.646-2.428,2.728-4.011,5.116-3.925c2.429,0.081,4.387,1.803,4.873,4.286l5.646,28.856l0.32-1.285
			c0.561-2.244,2.354-3.812,4.568-3.995c1.56-0.13,3.008,0.453,4.045,1.545l5.25-13.837c0.801-2.109,2.744-3.428,4.896-3.385
			c2.183,0.052,4.046,1.478,4.748,3.632l7.301,22.385l2.777-6.878c0.803-1.991,2.662-3.279,4.737-3.279h18.642c1.657,0,3,1.343,3,3
			s-1.343,3-3,3h-18.007l-3.501,8.672C169.791,119.938,167.947,121.209,165.871,121.209z"/>
	</g>
	<g>
		<path class="st8" d="M201.11,156.367h23v-10.455c0-1.316-1.067-2.383-2.383-2.383h-18.234c-1.316,0-2.383,1.067-2.383,2.383
			V156.367z"/>
	</g>
	<g>
		<path class="st8" d="M54.943,156.367h-23v-10.455c0-1.316,1.067-2.383,2.383-2.383H52.56c1.316,0,2.383,1.067,2.383,2.383V156.367
			z"/>
	</g>
	<g>
		<path class="st2" d="M54.943,224.768H28.352c-4.769,0-8.648-3.879-8.648-8.647v-53.183c0-4.769,3.879-8.648,8.648-8.648h26.591
			c1.104,0,2,0.896,2,2v66.479C56.943,223.873,56.047,224.768,54.943,224.768z M28.352,158.29c-2.563,0-4.648,2.085-4.648,4.648
			v53.183c0,2.563,2.085,4.647,4.648,4.647h24.591V158.29H28.352z"/>
	</g>
	<g>
		<path class="st2" d="M65.563,224.768h-10.62c-1.104,0-2-0.896-2-2V156.29c0-1.104,0.896-2,2-2h10.62c4.411,0,8,3.589,8,8v54.479
			C73.563,221.179,69.974,224.768,65.563,224.768z M56.943,220.768h8.62c2.206,0,4-1.794,4-4V162.29c0-2.206-1.794-4-4-4h-8.62
			V220.768z"/>
	</g>
	<g>
		<path class="st2" d="M227.648,224.846h-26.592c-1.104,0-2-0.896-2-2v-66.479c0-1.104,0.896-2,2-2h26.592
			c4.769,0,8.647,3.879,8.647,8.648v53.183C236.296,220.966,232.417,224.846,227.648,224.846z M203.057,220.846h24.592
			c2.563,0,4.647-2.085,4.647-4.648v-53.183c0-2.563-2.085-4.648-4.647-4.648h-24.592V220.846z"/>
	</g>
	<g>
		<path class="st2" d="M201.057,224.846h-11.619c-3.859,0-7-3.14-7-7v-56.479c0-3.86,3.141-7,7-7h11.619c1.104,0,2,0.896,2,2v66.479
			C203.057,223.95,202.161,224.846,201.057,224.846z M189.438,158.367c-1.654,0-3,1.346-3,3v56.479c0,1.654,1.346,3,3,3h9.619
			v-62.479H189.438z"/>
	</g>
	<g>
		<path class="st2" d="M224.109,158.367h-23c-1.104,0-2-0.896-2-2v-10.456c0-2.417,1.967-4.383,4.384-4.383h18.233
			c2.417,0,4.383,1.966,4.383,4.383v10.456C226.109,157.472,225.214,158.367,224.109,158.367z M203.109,154.367h19v-8.456
			c0-0.211-0.172-0.383-0.383-0.383h-18.233c-0.212,0-0.384,0.172-0.384,0.383V154.367z"/>
	</g>
	<g>
		<path class="st2" d="M54.943,158.367h-23c-1.104,0-2-0.896-2-2v-10.456c0-2.417,1.966-4.383,4.383-4.383H52.56
			c2.417,0,4.383,1.966,4.383,4.383v10.456C56.943,157.472,56.047,158.367,54.943,158.367z M33.943,154.367h19v-8.456
			c0-0.211-0.172-0.383-0.383-0.383H34.326c-0.211,0-0.383,0.172-0.383,0.383V154.367z"/>
	</g>
	<g>
		<path class="st5" d="M50.967,128.75c2.161,0,3.913-1.791,3.913-4v-10.132c0-39.507,29.411-71.648,65.561-71.648h15.438
			c36.151,0,65.561,32.141,65.561,71.648v10.132c0,2.209,1.752,4,3.913,4h13.895c2.161,0,3.913-1.791,3.913-4v-10.132
			c0-51.913-39.154-94.147-87.281-94.147h-15.438c-48.127,0-87.281,42.234-87.281,94.147v10.132c0,2.209,1.752,4,3.913,4H50.967z"/>
	</g>
	<g>
		<path class="st2" d="M21.704,215.627c-7.518,0-13.634-6.116-13.634-13.634v-24.93c0-7.518,6.116-13.634,13.634-13.634
			c1.104,0,2,0.896,2,2v48.197C23.704,214.732,22.808,215.627,21.704,215.627z M19.704,167.639
			c-4.356,0.923-7.634,4.798-7.634,9.425v24.93c0,4.626,3.278,8.502,7.634,9.425V167.639z"/>
	</g>
	<g>
		<path class="st2" d="M234.296,215.705c-1.104,0-2-0.896-2-2v-48.197c0-1.104,0.896-2,2-2c7.518,0,13.634,6.116,13.634,13.634
			v24.93C247.93,209.589,241.813,215.705,234.296,215.705z M236.296,167.717v43.779c4.355-0.923,7.634-4.798,7.634-9.425v-24.93
			C243.93,172.515,240.651,168.64,236.296,167.717z"/>
	</g>
	<g>
		<path class="st2" d="M219.247,130.75h-13.895c-3.26,0-5.912-2.691-5.912-6v-10.132c0-38.404-28.514-69.648-63.562-69.648h-15.438
			c-35.048,0-63.561,31.244-63.561,69.648v10.132c0,3.309-2.652,6-5.913,6H37.073c-3.26,0-5.913-2.691-5.913-6v-10.132
			c0-53.016,40.051-96.147,89.281-96.147h15.438c49.229,0,89.281,43.131,89.281,96.147v10.132
			C225.16,128.059,222.508,130.75,219.247,130.75z M120.441,40.97h15.438c37.254,0,67.562,33.039,67.562,73.648v10.132
			c0,1.103,0.857,2,1.912,2h13.895c1.055,0,1.913-0.897,1.913-2v-10.132c0-50.81-38.257-92.147-85.281-92.147h-15.438
			c-47.024,0-85.281,41.337-85.281,92.147v10.132c0,1.103,0.858,2,1.913,2h13.895c1.055,0,1.913-0.897,1.913-2v-10.132
			C52.88,74.009,83.188,40.97,120.441,40.97z"/>
	</g>
</g>
</svg>
