<svg class="icon icon_stats" version="1.0" xmlns="http://www.w3.org/2000/svg"
 width="256" height="256" viewBox="0 0 256.000000 256.000000"
 preserveAspectRatio="xMidYMid meet">

<g transform="translate(0.000000,256.000000) scale(0.100000,-0.100000)"
fill="#000000" stroke="none">
<path d="M0 1280 l0 -1220 1265 0 1265 0 0 170 0 170 -1095 0 -1095 0 0 1050
0 1050 -170 0 -170 0 0 -1220z"/>
<path d="M2230 2220 l-275 -139 -260 -1 -260 -2 -163 -184 -164 -184 -264 0
-264 0 0 -315 c0 -314 0 -316 20 -305 11 6 109 65 218 132 108 67 202 121 207
121 6 0 91 -29 190 -66 99 -36 185 -67 192 -69 6 -2 120 121 253 272 133 151
243 276 245 278 1 1 140 -62 309 -142 l306 -144 0 444 c0 244 -3 444 -7 443
-5 0 -132 -63 -283 -139z"/>
<path d="M1700 1225 c-124 -140 -232 -254 -241 -255 -9 0 -106 31 -216 69
l-199 69 -236 -211 c-130 -117 -237 -215 -237 -219 -1 -5 438 -8 974 -8 l975
0 -2 281 -3 281 -280 119 c-154 66 -287 121 -295 124 -10 3 -90 -79 -240 -250z"/>
</g>
</svg>
