<svg class="icon icon_number" version="1.0" xmlns="http://www.w3.org/2000/svg"
 width="256" height="256" viewBox="0 0 256.000000 256.000000"
 preserveAspectRatio="xMidYMid meet">
<g transform="translate(0.000000,256.000000) scale(0.100000,-0.100000)"
fill="#000000" stroke="none">
<path d="M0 1280 l0 -1110 1280 0 1280 0 0 1110 0 1110 -1280 0 -1280 0 0
-1110z m2370 750 l0 -170 -42 0 c-40 0 -44 3 -62 41 -33 71 -122 111 -211 95
-42 -8 -107 -63 -125 -106 -10 -24 -18 -30 -44 -30 -26 0 -34 6 -50 41 -33 71
-122 111 -211 95 -42 -8 -107 -63 -125 -106 -12 -29 -15 -30 -74 -30 l-61 1
-19 40 c-33 71 -122 111 -211 95 -42 -8 -107 -63 -125 -106 l-12 -30 -154 0
-154 0 -11 28 c-34 89 -153 136 -246 97 -48 -20 -71 -41 -94 -87 l-19 -38 -65
0 -65 0 0 170 0 170 1090 0 1090 0 0 -170z m-2039 -287 c13 -34 55 -80 89 -97
94 -48 213 -9 255 83 l18 41 151 0 151 -1 20 -42 c12 -24 37 -54 62 -71 35
-24 52 -29 100 -29 34 0 71 7 89 16 38 20 82 70 90 103 6 22 11 24 68 24 l61
-1 20 -42 c12 -24 37 -54 62 -71 35 -24 52 -29 100 -29 34 0 71 7 89 16 38 20
82 70 90 103 5 19 13 24 39 24 26 0 34 -5 39 -24 8 -33 52 -83 90 -103 40 -21
132 -21 172 0 38 20 82 70 90 103 5 21 12 24 50 24 l44 0 0 -235 0 -235 -43 0
c-40 0 -44 3 -55 33 -23 65 -102 117 -176 117 -68 -1 -157 -65 -172 -126 -5
-18 -13 -24 -35 -24 -23 0 -31 7 -42 33 -28 66 -102 115 -177 116 -71 1 -160
-62 -176 -125 -6 -22 -11 -24 -70 -24 -58 0 -64 2 -64 20 0 11 -18 40 -40 64
-40 43 -91 66 -146 66 -66 -1 -155 -66 -170 -126 -5 -18 -13 -24 -35 -24 -23
0 -31 7 -42 33 -28 66 -102 115 -177 116 -71 1 -160 -62 -176 -125 l-6 -24
-189 0 -189 0 0 235 0 235 65 0 c62 0 66 -1 76 -27z m243 -547 c15 -61 104
-125 172 -126 72 0 152 51 180 118 11 25 20 32 43 32 22 0 30 -6 35 -24 15
-60 104 -125 170 -126 57 0 107 23 147 68 21 25 39 53 39 63 0 17 8 19 64 19
59 0 64 -2 70 -24 15 -60 104 -125 170 -126 57 0 107 23 147 68 21 25 39 53
39 63 0 15 8 19 34 19 27 0 35 -5 40 -24 15 -62 104 -126 176 -126 72 0 161
64 176 126 5 21 12 24 50 24 l44 0 0 -235 0 -235 -43 0 c-40 0 -44 2 -55 34
-22 59 -106 116 -172 116 -66 0 -150 -57 -172 -116 -10 -29 -17 -34 -43 -34
-26 0 -33 5 -43 34 -22 59 -106 116 -172 116 -66 0 -150 -57 -172 -116 l-12
-34 -151 0 -151 0 -18 41 c-34 77 -131 122 -217 99 -48 -13 -107 -64 -126
-107 -13 -32 -15 -33 -72 -33 l-58 0 -18 41 c-64 142 -281 137 -341 -8 -14
-33 -15 -33 -79 -33 l-65 0 0 235 0 235 189 0 189 0 6 -24z m-236 -571 c39
-81 141 -123 227 -95 50 16 101 64 115 105 11 35 12 35 70 35 l58 0 22 -46
c54 -111 199 -137 295 -52 19 16 39 45 45 63 l12 35 153 0 153 0 6 -25 c4 -14
22 -43 41 -64 87 -96 248 -73 305 43 18 38 26 46 50 46 21 0 29 -6 34 -25 10
-40 74 -103 114 -115 82 -22 144 -6 200 51 18 19 36 46 39 62 5 24 10 27 49
27 l44 0 0 -155 0 -155 -1090 0 -1090 0 0 155 0 155 63 0 63 0 22 -45z"/>
</g>
</svg>
