<svg class="icon icon_clock" version="1.0" xmlns="http://www.w3.org/2000/svg"
 width="256" height="256" viewBox="0 0 256.000000 256.000000"
 preserveAspectRatio="xMidYMid meet">
<g transform="translate(0.000000,256.000000) scale(0.100000,-0.100000)"
fill="#000000" stroke="none">
<path d="M1115 2554 c-11 -3 -56 -12 -100 -20 -486 -93 -884 -492 -992 -994
-25 -119 -25 -401 0 -520 82 -382 326 -705 667 -880 192 -98 370 -140 595
-140 264 0 494 69 716 215 95 62 282 249 344 344 146 222 215 452 215 716 0
225 -42 403 -140 595 -173 337 -492 581 -870 665 -73 17 -389 30 -435 19z
m356 -179 c382 -67 708 -335 849 -700 55 -144 73 -258 67 -435 -4 -112 -11
-176 -26 -231 -109 -402 -408 -701 -810 -810 -120 -32 -356 -37 -486 -10 -525
109 -895 559 -895 1090 0 273 91 516 272 728 161 189 412 330 663 372 82 14
277 12 366 -4z"/>
<path d="M1220 1716 c0 -300 0 -305 -21 -320 -85 -59 -76 -203 16 -242 66 -27
132 -12 173 41 l20 25 221 0 221 0 0 55 0 55 -217 0 -216 0 -39 42 -38 41 0
304 0 303 -60 0 -60 0 0 -304z"/>
</g>
</svg>
