<svg class="icon icon_profile" version="1.0" xmlns="http://www.w3.org/2000/svg"
 width="256" height="256" viewBox="0 0 256.000000 256.000000"
 preserveAspectRatio="xMidYMid meet">
<g transform="translate(0.000000,256.000000) scale(0.100000,-0.100000)"
fill="#000000" stroke="none">
<path d="M1102 2530 c-159 -42 -309 -147 -395 -278 -85 -128 -120 -245 -119
-403 0 -305 197 -569 492 -661 108 -33 292 -33 400 0 381 119 581 506 461 892
-30 96 -87 185 -171 270 -87 88 -195 149 -316 180 -102 26 -252 26 -352 0z"/>
<path d="M635 1083 c-39 -8 -117 -37 -175 -65 -91 -44 -115 -62 -195 -142 -99
-99 -152 -187 -196 -321 -20 -62 -23 -96 -27 -307 l-4 -238 1242 0 1242 0 -4
237 c-4 236 -4 239 -35 328 -41 120 -92 205 -172 289 -108 112 -236 185 -391
220 l-64 15 -51 -33 c-162 -108 -331 -158 -529 -157 -201 0 -348 47 -546 173
-22 14 -32 14 -95 1z"/>
</g>
</svg>
