<svg class="icon profile_icon" version="1.0" xmlns="http://www.w3.org/2000/svg"
 width="256" height="256" viewBox="0 0 256.000000 256.000000"
 preserveAspectRatio="xMidYMid meet">

<g transform="translate(0.000000,256.000000) scale(0.100000,-0.100000)"
fill="#000000" stroke="none">
<path d="M1170 2550 c-131 -23 -242 -82 -346 -185 -138 -136 -201 -300 -191
-495 9 -168 69 -300 193 -426 57 -58 90 -81 165 -117 108 -52 177 -69 289 -69
112 0 181 17 289 69 322 154 453 547 293 873 -54 111 -178 233 -292 289 -130
63 -266 84 -400 61z"/>
<path d="M768 1020 c-271 -33 -500 -208 -603 -461 -39 -97 -55 -210 -55 -395
l0 -164 1171 0 1171 0 -5 208 c-5 229 -14 276 -73 399 -90 189 -270 337 -481
395 -74 21 -102 22 -568 24 -269 1 -520 -2 -557 -6z"/>
</g>
</svg>
