<svg class="icon icon_time" version="1.0" xmlns="http://www.w3.org/2000/svg"
 width="256" height="256" viewBox="0 0 256.000000 256.000000"
 preserveAspectRatio="xMidYMid meet">
<g transform="translate(0.000000,256.000000) scale(0.100000,-0.100000)"
fill="#000000" stroke="none">
<path d="M544 2547 c-3 -8 -4 -47 -2 -88 l3 -74 735 0 735 0 0 85 0 85 -733 3
c-608 2 -733 0 -738 -11z"/>
<path d="M636 2282 c-14 -23 -36 -174 -36 -250 0 -201 79 -370 228 -487 55
-44 203 -125 250 -137 21 -6 22 -10 22 -120 l0 -113 -48 -19 c-80 -32 -190
-105 -255 -170 -149 -150 -204 -324 -182 -580 l7 -86 654 0 c360 0 654 3 654
8 1 4 5 52 10 107 16 180 -19 330 -106 458 -77 112 -212 218 -336 264 -55 20
-54 16 -41 171 4 56 10 82 19 82 7 0 58 23 114 51 182 91 303 235 345 410 20
85 19 250 -2 344 l-16 75 -638 0 c-351 0 -640 -3 -643 -8z m1111 -285 c-11
-169 -72 -307 -175 -398 -51 -45 -134 -93 -229 -134 l-62 -27 -113 56 c-62 30
-136 76 -164 100 -108 95 -170 232 -181 401 l-6 95 468 0 468 0 -6 -93z m-411
-878 c78 -37 145 -138 159 -240 l7 -45 -227 0 -226 -1 7 41 c18 109 69 191
148 237 61 34 76 35 132 8z"/>
<path d="M542 88 l3 -83 735 0 735 0 3 83 3 82 -741 0 -741 0 3 -82z"/>
</g>
</svg>
